<?xml version="1.0" encoding="utf-8"?>
<!-- Generator: Adobe Illustrator 25.2.1, SVG Export Plug-In . SVG Version: 6.00 Build 0)  -->
<svg version="1.1" id="logo" xmlns="http://www.w3.org/2000/svg" xmlns:xlink="http://www.w3.org/1999/xlink" x="0px" y="0px"
	 viewBox="0 0 202 19.9" style="enable-background:new 0 0 202 19.9;" xml:space="preserve">
<style type="text/css">
	.st0{fill:#009D80;}
</style>
<path id="パス_1" d="M16.4,8.6L16.4,8.6l-2.8-0.1c-0.5,1.7-2.1,2.9-3.9,2.8H7.2l1.6,2.6h0.8C12.8,13.9,15.6,11.7,16.4,8.6z"/>
<path id="パス_2" d="M13.2,4.7h3l0-0.1c-0.1-0.3-0.2-0.5-0.3-0.7C14.7,1.5,12.3,0,9.6,0H0l1.6,2.6h8C11.1,2.4,12.6,3.3,13.2,4.7z"
	/>
<path id="パス_3" class="st0" d="M16.5,19.9c4.2,0,7.6-3.4,7.6-7.6c0-4.2-3.4-7.6-7.6-7.6l0,0H2.9l2.3,3.8h11.1
	c2.1-0.1,3.9,1.5,4,3.6c0,0,0,0.1,0,0.1c0,2.1-1.7,3.7-3.8,3.8h-6.3l2.4,3.8H16.5z"/>
<path id="パス_4" d="M134.3,6.1v-3h-13.7v15.5h3v-5.3h10.6v-3h-10.6V6.1L134.3,6.1z"/>
<path id="パス_5" d="M192.7,9l-9.3-6.1v15.7h3V8.5l6.3,4.1l6.3-4.1v10.1h3V2.9L192.7,9z"/>
<path id="パス_6" class="st0" d="M63.3,11.1c-0.1,2.6-2.4,4.6-5,4.5c-2.4-0.1-4.3-2.1-4.5-4.5v-8h-3v8c0.1,4.3,3.7,7.7,8,7.5
	c4.1-0.1,7.4-3.4,7.5-7.5v-8h-3L63.3,11.1z"/>
<path id="パス_7" class="st0" d="M72,6.1h5v12.5h3V6.1h5v-3H72V6.1z"/>
<rect id="長方形_1" x="111.5" y="3.1" class="st0" width="3" height="15.5"/>
<path id="パス_8" d="M178.8,18.6L178.8,18.6z"/>
<path id="パス_9" d="M178.8,18.6l-4.5-7c2.2-1.4,2.8-4.3,1.4-6.4c-0.9-1.3-2.3-2.1-3.9-2.1h-9.7v15.5h3V6.1h6.6
	c0.9,0,1.6,0.7,1.6,1.6s-0.7,1.6-1.6,1.6h-2.5l6,9.3L178.8,18.6L178.8,18.6z"/>
<path id="パス_10" class="st0" d="M44.7,7.7c0-2.6-2.1-4.6-4.6-4.6h-9.7v15.5h9.7c2.6,0,4.6-2.1,4.6-4.6c0-1.2-0.4-2.3-1.2-3.1
	C44.3,10,44.7,8.9,44.7,7.7z M41.7,14c0,0.9-0.7,1.6-1.6,1.6h-6.6V6.1h6.6c0.9,0,1.6,0.7,1.6,1.6c0,0.3-0.1,0.7-0.3,0.9h-2.8
	l2.7,3.8l0,0C41.5,12.9,41.7,13.4,41.7,14L41.7,14z"/>
<path id="パス_11" d="M147.4,2.8l-10.1,15.8h3.6l6.5-10.2l4.5,7.1h-4.4l1.9,3h8.1L147.4,2.8z"/>
<path id="パス_12" class="st0" d="M96.8,2.8L86.7,18.6h3.6l6.5-10.2l4.5,7.1h-4.4l1.9,3h8.1L96.8,2.8z"/>
</svg>
