<svg shape-rendering="geometricPrecision" id="svgElem" xmlns="http://www.w3.org/2000/svg" width="589" height="589"><g id="polygons"><polygon points="354,445,252,320,126,451" style="fill:rgb(205,196,177);stroke-linejoin:bevel;stroke-width: 1px;stroke:#f3f5f9;"></polygon><polygon points="354,445,126,451,9,583" style="fill:rgb(198,189,170);stroke-linejoin:bevel;stroke-width: 1px;stroke:#f3f5f9;"></polygon><polygon points="354,445,9,583,529,413" style="fill:rgb(68,70,62);stroke-linejoin:bevel;stroke-width: 1px;stroke:#f3f5f9;"></polygon><polygon points="354,445,529,413,450,283" style="fill:rgb(121,124,109);stroke-linejoin:bevel;stroke-width: 1px;stroke:#f3f5f9;"></polygon><polygon points="354,445,450,283,252,320" style="fill:rgb(57,61,57);stroke-linejoin:bevel;stroke-width: 1px;stroke:#f3f5f9;"></polygon><polygon points="126,451,143,300,9,583" style="fill:rgb(196,187,172);stroke-linejoin:bevel;stroke-width: 1px;stroke:#f3f5f9;"></polygon><polygon points="126,451,252,320,143,300" style="fill:rgb(200,191,170);stroke-linejoin:bevel;stroke-width: 1px;stroke:#f3f5f9;"></polygon><polygon points="570,80,160,139,361,167" style="fill:rgb(31,30,35);stroke-linejoin:bevel;stroke-width: 1px;stroke:#f3f5f9;"></polygon><polygon points="570,80,361,167,450,283" style="fill:rgb(31,31,33);stroke-linejoin:bevel;stroke-width: 1px;stroke:#f3f5f9;"></polygon><polygon points="570,80,450,283,529,413" style="fill:rgb(227,212,195);stroke-linejoin:bevel;stroke-width: 1px;stroke:#f3f5f9;"></polygon><polygon points="361,167,160,139,252,320" style="fill:rgb(222,213,192);stroke-linejoin:bevel;stroke-width: 1px;stroke:#f3f5f9;"></polygon><polygon points="361,167,252,320,450,283" style="fill:rgb(187,136,109);stroke-linejoin:bevel;stroke-width: 1px;stroke:#f3f5f9;"></polygon><polygon points="160,139,9,583,143,300" style="fill:rgb(201,193,172);stroke-linejoin:bevel;stroke-width: 1px;stroke:#f3f5f9;"></polygon><polygon points="160,139,143,300,252,320" style="fill:rgb(218,208,187);stroke-linejoin:bevel;stroke-width: 1px;stroke:#f3f5f9;"></polygon></g><g id="circles"><circle cx="354.1510563546424" cy="445.3608061720343" r="0" style="fill:#fff" id="d0c"></circle><circle cx="126.52886564723192" cy="451.712761044451" r="0" style="fill:#fff" id="d1c"></circle><circle cx="570.077498632441" cy="80.7588550136165" r="0" style="fill:#fff" id="d2c"></circle><circle cx="361.05940000406827" cy="167.72029543918325" r="0" style="fill:#fff" id="d3c"></circle><circle cx="160.84701803910576" cy="139.49125945229093" r="0" style="fill:#fff" id="d4c"></circle><circle cx="450.7867149404744" cy="283.6885534854924" r="0" style="fill:#fff" id="d5c"></circle><circle cx="529.9371091579227" cy="413.0023872835103" r="0" style="fill:#fff" id="d6c"></circle><circle cx="143.6056783064405" cy="300.8690278751988" r="0" style="fill:#fff" id="d7c"></circle><circle cx="252.60358389358953" cy="320.5590354049004" r="0" style="fill:#fff" id="d8c"></circle><circle cx="9.633114568123505" cy="583.2381960562861" r="0" style="fill:#fff" id="d9c"></circle></g><defs></defs></svg>